HIERARCHY
ROOT hip
{
  OFFSET 0 0 0
  CHANNELS 6 Xposition Yposition Zposition Zrotation Yrotation Xrotation
  JOINT abdomen
  {
    OFFSET 0 20.6881 -0.73152
    CHANNELS 3 Zrotation Xrotation Yrotation
    JOINT chest
    {
      OFFSET 0 11.7043 -0.48768
      CHANNELS 3 Zrotation Xrotation Yrotation
      JOINT neck
      {
        OFFSET 0 22.1894 -2.19456
        CHANNELS 3 Zrotation Xrotation Yrotation
        JOINT head
        {
          OFFSET -0.24384 7.07133 1.2192
          CHANNELS 3 Zrotation Xrotation Yrotation
          JOINT leftEye
          {
            OFFSET 4.14528 8.04674 8.04672
            CHANNELS 3 Zrotation Xrotation Yrotation
            End Site
            {
              OFFSET 1 0 0
            }
          }
          JOINT rightEye
          {
            OFFSET -3.6576 8.04674 8.04672
            CHANNELS 3 Zrotation Xrotation Yrotation
            End Site
            {
              OFFSET 1 0 0
            }
          }
        }
      }
      JOINT rCollar
      {
        OFFSET -2.68224 19.2634 -4.8768
        CHANNELS 3 Zrotation Xrotation Yrotation
        JOINT rShldr
        {
          OFFSET -8.77824 -1.95073 1.46304
          CHANNELS 3 Zrotation Xrotation Yrotation
          JOINT rForeArm
          {
            OFFSET -28.1742 -1.7115 0.48768
            CHANNELS 3 Zrotation Xrotation Yrotation
            JOINT rHand
            {
              OFFSET -22.5879 0.773209 7.07136
              CHANNELS 3 Zrotation Xrotation Yrotation
              JOINT rThumb1
              {
                OFFSET -1.2192 -0.487915 3.41376
                CHANNELS 3 Zrotation Xrotation Yrotation
                JOINT rThumb2
                {
                  OFFSET -3.37035 -0.52449 3.41376
                  CHANNELS 3 Zrotation Xrotation Yrotation
                  End Site
                  {
                    OFFSET -1.78271 -1.18214 1.43049
                  }
                }
              }
              JOINT rIndex1
              {
                OFFSET -7.75947 0.938293 5.60832
                CHANNELS 3 Zrotation Xrotation Yrotation
                JOINT rIndex2
                {
                  OFFSET -2.54057 -0.884171 1.56538
                  CHANNELS 3 Zrotation Xrotation Yrotation
                  End Site
                  {
                    OFFSET -1.62519 -0.234802 1.16502
                  }
                }
              }
              JOINT rMid1
              {
                OFFSET -8.24714 1.18213 3.41376
                CHANNELS 3 Zrotation Xrotation Yrotation
                JOINT rMid2
                {
                  OFFSET -3.10165 -0.590103 1.0647
                  CHANNELS 3 Zrotation Xrotation Yrotation
                  End Site
                  {
                    OFFSET -2.48547 -0.328903 0.83742
                  }
                }
              }
              JOINT rRing1
              {
                OFFSET -8.82822 0.546677 1.51678
                CHANNELS 3 Zrotation Xrotation Yrotation
                JOINT rRing2
                {
                  OFFSET -2.60934 -0.819778 -0.0198488
                  CHANNELS 3 Zrotation Xrotation Yrotation
                  End Site
                  {
                    OFFSET -2.33842 -0.294052 0.168128
                  }
                }
              }
              JOINT rPinky1
              {
                OFFSET -8.27202 -0.0477905 -0.4584
                CHANNELS 3 Zrotation Xrotation Yrotation
                JOINT rPinky2
                {
                  OFFSET -1.82734 -0.647385 -0.700984
                  CHANNELS 3 Zrotation Xrotation Yrotation
                  End Site
                  {
                    OFFSET -1.69225 -0.51767 -0.607171
                  }
                }
              }
            }
          }
        }
      }
      JOINT lCollar
      {
        OFFSET 2.68224 19.2634 -4.8768
        CHANNELS 3 Zrotation Xrotation Yrotation
        JOINT lShldr
        {
          OFFSET 8.77824 -1.95073 1.46304
          CHANNELS 3 Zrotation Xrotation Yrotation
          JOINT lForeArm
          {
            OFFSET 28.1742 -1.7115 0.48768
            CHANNELS 3 Zrotation Xrotation Yrotation
            JOINT lHand
            {
              OFFSET 22.5879 0.773209 7.07136
              CHANNELS 3 Zrotation Xrotation Yrotation
              JOINT lThumb1
              {
                OFFSET 1.2192 -0.487915 3.41376
                CHANNELS 3 Zrotation Xrotation Yrotation
                JOINT lThumb2
                {
                  OFFSET 3.37035 -0.52449 3.41376
                  CHANNELS 3 Zrotation Xrotation Yrotation
                  End Site
                  {
                    OFFSET 1.78271 -1.18214 1.43049
                  }
                }
              }
              JOINT lIndex1
              {
                OFFSET 7.75947 0.938293 5.60832
                CHANNELS 3 Zrotation Xrotation Yrotation
                JOINT lIndex2
                {
                  OFFSET 2.54057 -0.884171 1.56538
                  CHANNELS 3 Zrotation Xrotation Yrotation
                  End Site
                  {
                    OFFSET 1.62519 -0.234802 1.16502
                  }
                }
              }
              JOINT lMid1
              {
                OFFSET 8.24714 1.18213 3.41376
                CHANNELS 3 Zrotation Xrotation Yrotation
                JOINT lMid2
                {
                  OFFSET 3.10165 -0.590103 1.0647
                  CHANNELS 3 Zrotation Xrotation Yrotation
                  End Site
                  {
                    OFFSET 2.48547 -0.328903 0.83742
                  }
                }
              }
              JOINT lRing1
              {
                OFFSET 8.82822 0.546677 1.51678
                CHANNELS 3 Zrotation Xrotation Yrotation
                JOINT lRing2
                {
                  OFFSET 2.60934 -0.819778 -0.0198488
                  CHANNELS 3 Zrotation Xrotation Yrotation
                  End Site
                  {
                    OFFSET 2.33842 -0.294052 0.168128
                  }
                }
              }
              JOINT lPinky1
              {
                OFFSET 8.27202 -0.0477905 -0.4584
                CHANNELS 3 Zrotation Xrotation Yrotation
                JOINT lPinky2
                {
                  OFFSET 1.82734 -0.647385 -0.700984
                  CHANNELS 3 Zrotation Xrotation Yrotation
                  End Site
                  {
                    OFFSET 1.69225 -0.51767 -0.607171
                  }
                }
              }
            }
          }
        }
      }
    }
  }
  JOINT rButtock
  {
    OFFSET -8.77824 4.35084 1.2192
    CHANNELS 3 Zrotation Xrotation Yrotation
    JOINT rThigh
    {
      OFFSET 0 -1.70687 -2.19456
      CHANNELS 3 Zrotation Xrotation Yrotation
      JOINT rShin
      {
        OFFSET 0 -36.8199 0.73152
        CHANNELS 3 Zrotation Xrotation Yrotation
        JOINT rFoot
        {
          OFFSET 0.73152 -45.1104 -5.12064
          CHANNELS 3 Zrotation Xrotation Yrotation
          End Site
          {
            OFFSET -1.1221 -3.69964 12.103
          }
        }
      }
    }
  }
  JOINT lButtock
  {
    OFFSET 8.77824 4.35084 1.2192
    CHANNELS 3 Zrotation Xrotation Yrotation
    JOINT lThigh
    {
      OFFSET 0 -1.70687 -2.19456
      CHANNELS 3 Zrotation Xrotation Yrotation
      JOINT lShin
      {
        OFFSET 0 -36.8199 0.73152
        CHANNELS 3 Zrotation Xrotation Yrotation
        JOINT lFoot
        {
          OFFSET -0.73152 -45.1104 -5.12064
          CHANNELS 3 Zrotation Xrotation Yrotation
          End Site
          {
            OFFSET 1.1221 -3.69964 12.103
          }
        }
      }
    }
  }
}
MOTION
Frames:	4
Frame Time:	0.03333
-1.417924021370709 54.83003854751587 -34.521658439189196 -8.753700256347656 -56.2556266784668 11.15428352355957 -1.7638601064682007 13.517841339111328 15.663808822631836 -2.831826686859131 -12.535867691040039 3.9904580116271973 -0.6337606310844421 14.023367881774902 9.60131549835205 7.694029331207275 -24.72963523864746 20.675588607788086 -0.05719572678208351 0.03393642604351044 0.24793510138988495 0.11646796762943268 -0.062178224325180054 0.41681063175201416 -0.08090386539697647 -0.36508461833000183 -0.058687902987003326 25.29871368408203 78.82730102539062 42.88496780395508 -28.098377227783203 -42.45684814453125 88.38124084472656 -21.218372344970703 -74.15511322021484 -27.84441566467285 -0.06845968961715698 -0.23218509554862976 0.1673499345779419 -0.23216396570205688 -0.3951776623725891 0.2612976133823395 0.06033749505877495 -0.10908796638250351 -0.0059359995648264885 7.841360569000244 5.336699485778809 0.41305601596832275 -0.19794344902038574 0.3747805953025818 -0.8648324608802795 3.083061695098877 0.8067668676376343 0.44972363114356995 -0.14392878115177155 -0.0663880854845047 0.21287687122821808 10.687406539916992 0.8370035290718079 0.40226778388023376 -0.10632997751235962 -0.033890821039676666 -0.3666159510612488 2.5342371463775635 -0.7140500545501709 -0.13591782748699188 0.26961052417755127 0.1910448670387268 -0.5411947965621948 -62.10637283325195 2.4044721126556396 -34.48163604736328 28.201826095581055 -32.88434600830078 -71.55227661132812 0.37630701065063477 21.020545959472656 -2.9695675373077393 0.05392586439847946 -0.09977645426988602 0.2198248952627182 0.0648513063788414 -0.026310231536626816 -0.11958044022321701 0.32417458295822144 0.02427329123020172 0.025536391884088516 -7.941988945007324 5.428496360778809 -0.17971724271774292 -0.1500083953142166 -0.14675265550613403 -0.25153371691703796 -3.394259452819824 1.284774899482727 -0.03758781775832176 -0.29631027579307556 0.06805237382650375 -0.3166814148426056 -10.260954856872559 0.45976129174232483 -0.09588956832885742 -0.03408345207571983 -0.030385784804821014 -0.24132828414440155 -2.313324451446533 -0.7783355712890625 0.4778394103050232 -0.12352874130010605 -0.20155440270900726 0.19327954947948456 -29.1817626953125 -32.46143341064453 -33.542720794677734 -3.7834200859069824 82.3723373413086 6.494416236877441 -12.009161949157715 -24.89599609375 -24.990764617919922 -0.3591359853744507 0.305379182100296 0.08817683905363083 65.99359893798828 -41.84747314453125 62.474212646484375 3.1507248878479004 70.0740966796875 -2.893495559692383 -0.2805868983268738 3.3085620403289795 0.5235458016395569
-1.2344015529379249 54.93895411491394 -34.800450410693884 -8.580131530761719 -55.87977981567383 11.119702339172363 -2.0263118743896484 13.582233428955078 15.68850326538086 -2.854917526245117 -12.54843521118164 4.004493236541748 -0.6644763946533203 14.016805648803711 9.532729148864746 7.635629653930664 -24.92456817626953 20.520105361938477 -0.04020269960165024 0.029278641566634178 0.2584906816482544 0.09255664795637131 -0.06187377870082855 0.43105387687683105 -0.11184760183095932 -0.39014437794685364 -0.03118831291794777 23.74576187133789 78.05144500732422 44.69673156738281 -28.18623924255371 -42.096073150634766 87.73455047607422 -19.66724967956543 -73.35543823242188 -26.184833526611328 -0.06514769047498703 -0.22304168343544006 0.18256498873233795 -0.21972477436065674 -0.4042840600013733 0.2400931715965271 0.04526405408978462 -0.09449150413274765 -0.03241819515824318 7.803802967071533 5.295174598693848 0.42105549573898315 -0.2337491512298584 0.37522009015083313 -0.8997231721878052 3.0958251953125 0.8323801755905151 0.46124792098999023 -0.16172301769256592 -0.04941876605153084 0.182264044880867 10.737874031066895 0.8433975577354431 0.42610955238342285 -0.1269773244857788 -0.030907010659575462 -0.3768070936203003 2.5214643478393555 -0.7197220921516418 -0.10926800966262817 0.26419922709465027 0.20004673302173615 -0.5584044456481934 -62.03042221069336 2.704380750656128 -34.01051330566406 28.235197067260742 -33.017032623291016 -71.71139526367188 0.35821717977523804 20.253530502319336 -2.8450582027435303 0.08659422397613525 -0.08314116299152374 0.23637664318084717 0.04685364291071892 0.005069236736744642 -0.14889197051525116 0.34211352467536926 -0.016312872990965843 0.036457084119319916 -7.973120212554932 5.412766456604004 -0.15610431134700775 -0.1210251972079277 -0.1886107623577118 -0.24194678664207458 -3.441678285598755 1.3066755533218384 0.018710464239120483 -0.3317048251628876 0.05649716034531593 -0.31201669573783875 -10.25656795501709 0.4644932448863983 -0.11364204436540604 -0.07935594767332077 -0.026834456250071526 -0.2300949990749359 -2.2775394916534424 -0.8593494892120361 0.44329938292503357 -0.10066621005535126 -0.1828904002904892 0.16116085648536682 -29.058727264404297 -32.89144515991211 -33.30272674560547 -3.5966274738311768 82.67897033691406 6.3194966316223145 -11.929678916931152 -24.601781845092773 -24.953441619873047 -0.3152821362018585 0.3384373188018799 0.07276347279548645 65.07521057128906 -42.09740447998047 61.46963119506836 3.054260730743408 69.24124908447266 -2.7609033584594727 -0.2726147770881653 3.5764596462249756 0.8620352149009705
-0.9761188412085176 54.883283376693726 -35.18370995298028 -9.131478309631348 -55.124916076660156 10.835047721862793 -1.7636728286743164 13.565146446228027 15.838801383972168 -2.92553973197937 -12.550799369812012 4.014575958251953 -0.506030261516571 14.123899459838867 9.752059936523438 7.604365825653076 -25.01947593688965 20.958938598632812 -0.02373206987977028 0.008396855555474758 0.2397153526544571 0.03981227055191994 -0.03990576043725014 0.39839738607406616 -0.16264985501766205 -0.4384801685810089 -0.04955606162548065 25.488569259643555 79.12794494628906 42.958885192871094 -28.057424545288086 -42.76520919799805 88.78150939941406 -21.645437240600586 -74.46569061279297 -28.254457473754883 -0.09834128618240356 -0.19104033708572388 0.1916719526052475 -0.1761396825313568 -0.39090168476104736 0.24906235933303833 -0.008257821202278137 -0.13453476130962372 0.004171182867139578 7.825489044189453 5.2968597412109375 0.44463008642196655 -0.2563157081604004 0.41363173723220825 -0.8803680539131165 3.13741397857666 0.8482393622398376 0.45777660608291626 -0.18896867334842682 -0.02528621256351471 0.17904531955718994 10.82000732421875 0.8666973114013672 0.3795393407344818 -0.12038007378578186 -0.06906876713037491 -0.38968873023986816 2.4239790439605713 -0.7457971572875977 -0.11822271347045898 0.20202849805355072 0.23741136491298676 -0.5875610709190369 -62.17829513549805 2.248645782470703 -34.93701171875 28.259517669677734 -33.064208984375 -71.68495178222656 0.42475393414497375 21.123302459716797 -3.025052309036255 0.11090657114982605 -0.10972675681114197 0.23529992997646332 0.012429134920239449 -0.09110730141401291 -0.1692061424255371 0.3397897779941559 0.014176233671605587 0.03264478221535683 -8.013962745666504 5.450015544891357 -0.09421809762716293 -0.06932271271944046 -0.16084977984428406 -0.2570360004901886 -3.3216514587402344 1.303810954093933 0.024528756737709045 -0.3343620002269745 0.0790787935256958 -0.3772618770599365 -10.329792976379395 0.45158645510673523 -0.12152857333421707 -0.15191473066806793 -0.01631494238972664 -0.1512208729982376 -2.277194023132324 -0.8868659138679504 0.44428959488868713 -0.049935925751924515 -0.19888180494308472 0.09879160672426224 -28.659427642822266 -32.369014739990234 -32.98773193359375 -4.253179550170898 82.73028564453125 7.023393154144287 -12.272598266601562 -24.888566970825195 -25.61431884765625 -0.3068631589412689 0.3185637891292572 0.041077546775341034 66.80239868164062 -42.276451110839844 63.0380859375 3.0523903369903564 69.84571075439453 -2.702511787414551 -0.41278186440467834 3.7768373489379883 0.4940858781337738
-0.7571748225018382 54.555439949035645 -35.60747290030122 -9.725894927978516 -54.37249755859375 10.616790771484375 -1.475325107574463 13.435542106628418 15.901595115661621 -2.9123735427856445 -12.564579010009766 4.031935691833496 -0.4400479197502136 14.213642120361328 9.862297058105469 7.694439888000488 -24.927522659301758 21.226024627685547 -0.02934659644961357 0.018448356539011 0.2317361682653427 -0.003759361570701003 -0.033909596502780914 0.35930490493774414 -0.1839364618062973 -0.43946391344070435 -0.09345034509897232 27.776681900024414 80.0618896484375 40.578041076660156 -27.93365478515625 -43.33897018432617 89.75948333740234 -24.19078826904297 -75.57679748535156 -30.891010284423828 -0.09750505536794662 -0.19907140731811523 0.19261208176612854 -0.15103179216384888 -0.3819802701473236 0.2720751464366913 -0.07781126350164413 -0.15669934451580048 0.027084335684776306 7.824891567230225 5.331909656524658 0.46366506814956665 -0.2700093686580658 0.43034836649894714 -0.833152711391449 3.1374075412750244 0.8519071936607361 0.4868685007095337 -0.16560012102127075 0.0060575539246201515 0.1755242943763733 10.85837173461914 0.8859186172485352 0.3220600485801697 -0.11468625068664551 -0.11694563925266266 -0.4026338458061218 2.3698549270629883 -0.7824302315711975 -0.15464788675308228 0.16037480533123016 0.28098827600479126 -0.5747947692871094 -62.27244186401367 1.9046015739440918 -35.70220947265625 28.262958526611328 -33.184791564941406 -71.78007507324219 0.4556891620159149 21.790098190307617 -3.145327091217041 0.10513555258512497 -0.14560362696647644 0.24655373394489288 -0.022043773904442787 -0.163627028465271 -0.1456342339515686 0.36344677209854126 0.07176237553358078 0.005881057120859623 -8.016443252563477 5.484874248504639 -0.0945250540971756 -0.03667829558253288 -0.11957462131977081 -0.253132700920105 -3.1891727447509766 1.3105674982070923 0.027958663180470467 -0.31102243065834045 0.07446251809597015 -0.424471914768219 -10.393000602722168 0.4394685626029968 -0.09028824418783188 -0.1593589186668396 0.007526578847318888 -0.10967977344989777 -2.292729616165161 -0.8642236590385437 0.4799198508262634 -0.05865580588579178 -0.2613563537597656 0.08471427112817764 -28.588748931884766 -31.772159576416016 -33.07264709472656 -4.685604095458984 82.59526824951172 7.524923801422119 -12.512420654296875 -25.208131790161133 -26.037208557128906 -0.34080004692077637 0.2672264277935028 0.021680600941181183 68.56291961669922 -42.23767852783203 64.8100357055664 3.2287967205047607 70.85310363769531 -2.831108808517456 -0.48249727487564087 3.6243534088134766 0.1264180690050125
